<svg width="32" height="32" viewBox="0 0 32 32" fill="none" xmlns="http://www.w3.org/2000/svg">
<g clip-path="url(#clip0_427_307)">
<rect width="32" height="32" rx="16" fill="#547841"/>
<path d="M11.0509 10.8534C14.945 10.8534 18.1015 13.2413 18.1015 16.1868C18.1015 19.1323 14.9447 21.5201 11.0509 21.5201C7.15701 21.5201 4 19.1323 4 16.1868C4 13.2413 7.15677 10.8534 11.0509 10.8534ZM22.3106 11.1658C24.2577 11.1658 25.836 13.4136 25.836 16.1868H25.8363C25.8363 18.9593 24.2579 21.2078 22.3108 21.2078C20.3638 21.2078 18.7854 18.9593 18.7854 16.1868C18.7854 13.4143 20.3636 11.1658 22.3106 11.1658ZM27.7601 11.6888C28.4447 11.6888 29 13.7026 29 16.1868C29 18.6703 28.445 20.6848 27.7601 20.6848C27.0752 20.6848 26.5204 18.6709 26.5204 16.1868C26.5204 13.7028 27.0755 11.6888 27.7601 11.6888Z" fill="white"/>
</g>
<defs>
<clipPath id="clip0_427_307">
<rect width="32" height="32" fill="white"/>
</clipPath>
</defs>
</svg>
